<?xml version="1.0" encoding="UTF-8" standalone="no"?>
<!-- Created with Inkscape (http://www.inkscape.org/) -->

<svg
   xmlns:dc="http://purl.org/dc/elements/1.1/"
   xmlns:cc="http://creativecommons.org/ns#"
   xmlns:rdf="http://www.w3.org/1999/02/22-rdf-syntax-ns#"
   xmlns:svg="http://www.w3.org/2000/svg"
   xmlns="http://www.w3.org/2000/svg"
   xmlns:sodipodi="http://sodipodi.sourceforge.net/DTD/sodipodi-0.dtd"
   xmlns:inkscape="http://www.inkscape.org/namespaces/inkscape"
   width="161"
   height="197"
   id="svg2"
   version="1.1"
   inkscape:version="0.48.4 r9939"
   sodipodi:docname="drawing.svg">
  <defs
     id="defs3206" />
  <sodipodi:namedview
     pagecolor="#ffffff"
     bordercolor="#666666"
     borderopacity="1"
     objecttolerance="10"
     gridtolerance="10"
     guidetolerance="10"
     inkscape:pageopacity="0"
     inkscape:pageshadow="2"
     inkscape:window-width="1317"
     inkscape:window-height="750"
     id="namedview3204"
     showgrid="false"
     inkscape:zoom="1.2685914"
     inkscape:cx="98.379242"
     inkscape:cy="59.102137"
     inkscape:window-x="49"
     inkscape:window-y="18"
     inkscape:window-maximized="1"
     inkscape:current-layer="svg2"
     height="524.41px" />
  <metadata
     id="metadata7">
    <rdf:RDF>
      <cc:Work
         rdf:about="">
        <dc:format>image/svg+xml</dc:format>
        <dc:type
           rdf:resource="http://purl.org/dc/dcmitype/StillImage" />
        <dc:title />
      </cc:Work>
    </rdf:RDF>
  </metadata>
  <path
     d="m 45.891125,144.25123 -5.357143,-4.64286 0.714285,-33.21429 12.290791,0.10461 -0.147933,25.96682 z"
     id="path3792"
     inkscape:connector-curvature="0" />
  <path
     d="m 53.569696,106.75122 -0.178571,-22.500003 -2.929107,-5.69722 -4.570893,-5.37421 -4.642858,5.71429 0,27.500003 z"
     id="path3794"
     inkscape:connector-curvature="0" />
  <path
     d="m 56.437198,86.215627 26.137695,-1.01016 21.970817,1.6415 7.70241,-15.27856 -9.59645,-4.67195 c 0,0 -10.859137,-2.14658 -11.743017,-2.39912 -0.88388,-0.25253 -11.36422,-0.12627 -12.2481,-0.50507 -0.88388,-0.37881 -11.86929,0.50507 -13.00571,0.88388 -1.13643,0.37881 -10.606605,3.15673 -11.237951,3.283 -0.631345,0.12627 -4.166879,2.90419 -4.166879,2.90419 z"
     id="path3796"
     inkscape:connector-curvature="0" />
  <path
     d="m 55.427045,88.614737 27.021588,-1.13642 22.728427,1.13642 0.63134,47.350903 -50.002548,-0.50507 z"
     id="path3798"
     inkscape:connector-curvature="0" />
  <path
     d="m 49.113592,23.838697 14.520941,-2.52538 16.03617,-0.88388 17.67767,1.13642 15.278557,3.03046 1.13642,44.0679 -12.62691,-5.3033 -12.626897,-1.89403 -10.35407,-0.12627 -14.14213,1.13642 c 0,0 -10.227796,3.6618 -10.732872,4.04061 -0.505076,0.37881 -5.177032,1.6415 -5.177032,1.6415 l 0,-3.78808 z"
     id="path3852"
     inkscape:connector-curvature="0" />
  <path
     d="m 49.36613,11.464337 0.252538,10.35406 16.667515,-2.02031 14.89975,-1.13642 15.15229,1.13642 16.162437,2.90419 0.25254,-7.44987 -0.63135,-3.15673 -9.84898,-1.89404 -15.278557,-0.8838801 c 0,0 -19.95051,0.37881 -20.45559,0.12627 -0.50508,-0.25254 -12.753176,1.2626901 -12.753176,1.2626901 z"
     id="path3854"
     inkscape:connector-curvature="0" />
  <path
     id="path3856"
     d="m 106.61435,15.325497 a 3.9774756,3.7880721 0 1 1 -7.954943,0 3.9774756,3.7880721 0 1 1 7.954943,0 z"
     inkscape:connector-curvature="0"
     style="fill:#ffff00" />
  <path
     id="path3856-3"
     d="m 63.973625,15.046797 a 3.9774756,3.7880721 0 1 1 -7.95495,0 3.9774756,3.7880721 0 1 1 7.95495,0 z"
     inkscape:connector-curvature="0"
     style="fill:#ffff00" />
  <path
     d="m 45.956865,73.336177 -1.136422,-3.78807 -25.380083,0.25253 0.252539,36.618043 21.465741,0 -0.126269,-27.274123 z"
     id="path3876"
     inkscape:connector-curvature="0" />
  <path
     d="m 19.819168,106.29241 0,24.62247 7.828682,5.3033 4.798225,7.70241 13.131983,0 -5.177032,-4.29315 0.757614,-33.33503 z"
     id="path3878"
     inkscape:connector-curvature="0" />
  <path
     d="m 45.830596,143.92059 -0.252538,12.37432 -0.505077,16.6676 -2.272843,9.4701 -4.798225,5.4296 -9.343911,-0.5051 -8.460027,-4.6719 -1.38896,-8.3338 -0.378807,-7.5761 6.313453,-2.6517 5.808377,-6.8185 1.767767,-7.3236 0.12627,-6.18719 z"
     id="path3880"
     inkscape:connector-curvature="0" />
  <path
     d="m 20.071706,69.800637 7.323606,-5.93464 c 0,0 5.808377,-6.18719 5.808377,-7.19734 0,-1.01015 0.631345,-12.75317 0.631345,-12.75317 0,0 -3.409265,-6.566 -4.04061,-7.19734 -0.631345,-0.63135 -5.555839,-7.19734 -5.555839,-7.19734 l -2.272843,-3.53553 0.505076,-9.72272 c 0,0 1.515229,-4.04061 2.272843,-4.41942 0.757615,-0.3788 0.505077,-1.76776 3.914341,-2.0203001 3.409265,-0.25254 7.828683,1.7677601 7.828683,1.7677601 l 7.702413,4.67196 2.651651,7.19734 -1.045966,31.70422 -1.226878,14.38399 z"
     id="path3882"
     inkscape:connector-curvature="0" />
  <path
     style="color:#000000;fill:none;stroke:#000000;stroke-width:1px;stroke-linecap:butt;stroke-linejoin:miter;stroke-miterlimit:4;stroke-opacity:1;stroke-dasharray:none;stroke-dashoffset:0;marker:none;visibility:visible;display:inline;overflow:visible;enable-background:accumulate"
     d="m 44.946712,0.98399686 4.671956,7.44988004 31.314735,-1.26269 32.577407,1.76776 4.9245,-8.58629004 z"
     id="path3884"
     inkscape:connector-curvature="0" />
  <path
     d="m 19.44036,69.800637 -14.268405,0 0.126269,59.599013 14.268406,1.38896 z"
     id="path3886"
     inkscape:connector-curvature="0" />
  <path
     id="path3888"
     d="m 27.807339,147.94831 a 13.258252,13.258252 0 0 1 -26.5165045,0 13.258252,13.258252 0 1 1 26.5165045,0 z"
     inkscape:connector-curvature="0" />
  <path
     id="path3888-3"
     d="m 160.4674,149.06311 a 13.258252,13.258252 0 0 1 -26.5165,0 13.258252,13.258252 0 1 1 26.5165,0 z"
     inkscape:connector-curvature="0" />
  <path
     d="m 50.62882,153.01201 5.555839,-15.2786 11.616754,-0.12627 23.23351,0.25254 12.879437,0.25254 5.42957,15.40479 -5.3033,3.6618 -12.500627,1.0102 -14.01587,0.1263 c 0,0 -11.23795,-1.0102 -13.63706,-0.8839 -2.39911,0.1262 -9.59645,-1.8941 -9.59645,-1.8941 z"
     id="path3919"
     inkscape:connector-curvature="0" />
  <path
     d="m 47.724632,155.53731 -0.252538,19.0667 c 0,0 14.268409,3.283 14.899749,3.283 0.63135,0 14.77348,1.0101 14.77348,1.0101 l 14.64721,0 c 0,0 9.722717,-0.2525 10.480327,-0.5051 0.75762,-0.2525 10.2278,-3.6618 10.2278,-3.6618 l 0.63135,-9.9752 0,-9.7227 c 0,0 -9.09138,4.2931 -9.97526,4.5456 -0.88388,0.2526 -14.647207,0.3788 -15.657357,0.3788 -1.01016,0 -20.07679,-0.505 -20.07679,-0.505 l -13.510787,-1.6415 z"
     id="path3921"
     inkscape:connector-curvature="0" />
  <path
     d="m 46.714479,176.24551 -5.555839,14.2684 8.838835,3.6618 15.152288,2.2728 c 0,0 21.46574,0.1263 22.72843,-0.1263 1.26269,-0.2525 13.637057,0.5051 16.036167,0 2.39912,-0.505 10.2278,-2.1465 10.73287,-2.2728 0.50508,-0.1263 5.93465,-3.6618 5.93465,-3.6618 l -7.19734,-13.6371 -11.23794,3.5356 -15.026017,0.6313 -14.26841,-0.2525 -11.49048,-1.2627 z"
     id="path3923"
     inkscape:connector-curvature="0" />
  <path
     d="m 51.386435,182.43261 0.252538,6.061 13.38453,0 -0.25255,-6.061 z"
     id="path3925"
     inkscape:connector-curvature="0" />
  <path
     d="m 95.201803,183.69531 c 0,0 -0.12627,6.0609 0.50508,5.8084 0.63134,-0.2525 13.510787,-0.5051 13.510787,-0.5051 l -0.25254,-5.8083 z"
     id="path3927"
     inkscape:connector-curvature="0" />
  <path
     d="m 141.4185,69.608187 -7.32361,-5.93464 c 0,0 -5.80838,-6.18719 -5.80838,-7.19734 0,-1.01015 -0.63134,-12.75318 -0.63134,-12.75318 0,0 3.40926,-6.56599 4.04061,-7.19733 0.63134,-0.63135 5.55584,-7.19734 5.55584,-7.19734 l 2.27284,-3.53554 -0.50508,-9.72271 c 0,0 -1.51522,-4.04061 -2.27284,-4.41942 -0.75761,-0.37881 -0.50508,-1.7677701 -3.91434,-2.0203101 -3.40926,-0.25253 -7.82868,1.7677701 -7.82868,1.7677701 l -7.70242,4.67196 -2.65165,7.19733 1.04597,31.70423 1.22688,14.38398 z"
     id="path3882-9"
     inkscape:connector-curvature="0" />
  <path
     d="m 115.84716,73.175437 1.13642,-3.78807 25.38008,0.25253 -0.25254,36.618043 -21.46574,0 0.12627,-27.274123 z"
     id="path3876-7"
     inkscape:connector-curvature="0" />
  <path
     d="m 141.6772,69.185807 14.2684,0 -0.12627,59.599013 -14.2684,1.38896 z"
     id="path3886-4"
     inkscape:connector-curvature="0" />
  <path
     d="m 108.47065,106.25515 0.17857,-22.499993 2.92911,-5.69722 4.57089,-5.37421 4.64286,5.71429 0,27.499993 z"
     id="path3794-5"
     inkscape:connector-curvature="0" />
  <path
     id="path3888-1"
     d="m 28.92213,47.617187 a 13.258253,13.258253 0 0 1 -26.516505,0 13.258253,13.258253 0 1 1 26.516505,0 z"
     inkscape:connector-curvature="0" />
  <path
     id="path3888-1-9"
     d="m 161.58219,46.502397 a 13.258252,13.258252 0 0 1 -26.5165,0 13.258252,13.258252 0 1 1 26.5165,0 z"
     inkscape:connector-curvature="0" />
  <path
     d="m 116.17143,143.78254 5.35715,-4.64286 -0.71429,-33.21429 -12.29079,0.10461 0.14793,25.96682 z"
     id="path3792-2"
     inkscape:connector-curvature="0" />
  <path
     d="m 142.05694,106.41811 0,24.62247 -7.82868,5.3033 -4.79823,7.70241 -13.13198,0 5.17703,-4.29315 -0.75761,-33.33503 z"
     id="path3878-6"
     inkscape:connector-curvature="0" />
  <path
     d="m 115.4773,144.23569 0.25253,12.37432 0.50508,16.6676 2.27284,9.4701 4.79823,5.4296 9.34391,-0.5051 8.46003,-4.6719 1.38896,-8.3338 0.3788,-7.5761 -6.31345,-2.6517 -5.80838,-6.8185 -1.76776,-7.3236 -0.12627,-6.18719 z"
     id="path3880-0"
     inkscape:connector-curvature="0" />
</svg>
